<?xml version="1.0" encoding="UTF-8"?>
<svg id="Start_Page" data-name="Start Page" xmlns="http://www.w3.org/2000/svg" xmlns:xlink="http://www.w3.org/1999/xlink" viewBox="0 0 1080 1080">
  <defs>
    <style>
      .cls-1 {
        clip-path: url(#clippath);
      }

      .cls-2 {
        fill: none;
      }
    </style>
    <clipPath id="clippath">
      <path class="cls-2" d="m540.6,1046.41c-5.52-6.2-422.62-475.17-396.16-698.64,26.47-223.87,392.6-224.95,396.15-224.96h0c3.56,0,369.65,1.09,396.15,224.96.03,0-9.91,236.85-396.14,698.64Z"/>
    </clipPath>
  </defs>
  <g class="cls-1">
    <path d="m757.5,473.58c2.54-5.6-1.32-6.79-1.32-6.79,0,0-18.67-8.8-21.98-10.51-3.05-1.75-6.47-2.74-9.98-2.88-3.98-.11-7.96.13-11.9.71,19.14-24.72,33.99-43.18,37.53-47.48,0,0,8.12-8.55-.7-13.75-12.05-7.1-46.54-30.24-41.43-48.45,3.72-12.33-14.96-32.94-51.57-54.49-36.61-21.55-63.66-27.95-72.65-18.74-13.44,13.3-50.38-5.66-62.43-12.76-8.83-5.2-12.37,6.05-12.37,6.05-2.06,5.17-11.02,27.11-23.37,55.83-1.39-3.73-3.11-7.33-5.14-10.76-1.82-3-4.34-5.52-7.34-7.34-3.1-2.08-19.84-14.14-19.84-14.14,0,0-2.91-2.81-6.57,2.13-3.66,4.94-9.67,11.21-11.22,13.81l-.67,1.15-.17.29-.16.28-.67,1.15c-1.55,2.65-4.15,10.93-6.69,16.54-2.53,5.6,1.32,6.77,1.32,6.77,0,0,18.67,8.82,21.99,10.51,3.04,1.75,6.46,2.74,9.97,2.89,4.84.39,14.05-1,14.05-1l-.6,1.01,1.3.77c-11.51,26.22-24.67,55.24-37.5,81.56l-3.08-1.82-.59,1.01s-3.23-8.73-5.93-12.77c-1.83-3-4.35-5.52-7.35-7.34-3.08-2.08-19.83-14.14-19.83-14.14,0,0-2.92-2.8-6.58,2.14-3.66,4.94-9.66,11.21-11.21,13.81l-.67,1.15-.17.29-.16.28-.68,1.15c-1.54,2.64-4.14,10.91-6.67,16.51-2.53,5.6,1.32,6.78,1.32,6.78,0,0,18.67,8.82,21.97,10.51,3.05,1.74,6.48,2.72,9.99,2.87,4.83.4,14.04-.99,14.04-.99l-.6,1.01,4.14,2.44,3.82-6.48h.07c-6.61,13.02-13,24.94-18.88,34.92-12.66,21.4-23.55,38.7-33.07,53.09l.46-.81-4.14-2.44-.6,1.02s-3.23-8.73-5.93-12.77c-1.82-3-4.35-5.52-7.35-7.33-3.08-2.08-19.83-14.14-19.83-14.14,0,0-2.91-2.82-6.57,2.12-3.66,4.94-9.67,11.22-11.22,13.81l-.67,1.15-.16.28-.17.28-.67,1.15c-1.55,2.64-4.15,10.92-6.69,16.51-2.53,5.59,1.33,6.78,1.33,6.78,0,0,18.65,8.83,21.97,10.51,3.04,1.75,6.47,2.74,9.98,2.88,4.84.4,14.04-1,14.04-1l-.6,1.01,2.72,1.6c-11.02,15.69-19.67,26.91-26.47,36.25-14.41,19.84-9.57,25.43-9.57,25.43,27.68,49.48-123.29,297.51-123.29,297.51l64.32,37.91,64.31,37.91s143.98-252.11,200.64-251.85c0,0,7.24,1.52,17.62-20.71,4.89-10.46,10.52-23.45,18.91-40.69l2.72,1.6.6-1.01s3.23,8.72,5.93,12.76c1.82,3.01,4.34,5.53,7.35,7.34,3.07,2.09,19.82,14.14,19.82,14.14,0,0,2.91,2.82,6.58-2.12,3.67-4.94,9.66-11.21,11.22-13.81l.67-1.15.16-.28.16-.28.67-1.15c1.55-2.62,4.17-10.92,6.7-16.53,2.53-5.6-1.33-6.78-1.33-6.78,0,0-18.67-8.82-21.97-10.5-3.04-1.75-6.47-2.74-9.98-2.88-4.84-.4-14.04.99-14.04.99l.6-1.01-4.14-2.45-.47.79c7.95-15.31,17.81-33.24,30.43-54.64,5.88-9.98,13.21-21.35,21.4-33.43h.07l-3.82,6.48,4.14,2.44.59-1s3.23,8.73,5.93,12.76c1.83,3,4.35,5.53,7.35,7.35,3.08,2.07,19.82,14.13,19.82,14.13,0,0,2.92,2.81,6.58-2.12,3.66-4.93,9.67-11.21,11.21-13.81l.68-1.15.16-.28.16-.28.68-1.15c1.54-2.64,4.14-10.92,6.67-16.51,2.53-5.59-1.32-6.8-1.32-6.8,0,0-18.65-8.8-21.97-10.48-3.05-1.75-6.47-2.74-9.98-2.89-4.84-.4-14.04,1-14.04,1l.59-1.01-3.06-1.81c16.78-23.94,35.82-49.48,53.2-72.3l1.31.77.6-1.01s3.23,8.73,5.92,12.77c1.83,3,4.35,5.51,7.35,7.33,3.08,2.08,19.84,14.14,19.84,14.14,0,0,2.91,2.82,6.57-2.12,3.66-4.94,9.67-11.21,11.22-13.81l.68-1.15.16-.28.16-.29.67-1.15c1.57-2.64,4.15-10.92,6.69-16.51h.01Zm-253.06-121.65c8.61-2.02,17.23,3.33,19.25,11.94.03.14.06.28.09.42,1.84,8.9-3.72,17.65-12.56,19.77-8.6,2.03-17.21-3.3-19.24-11.9-.04-.16-.07-.32-.1-.47-1.84-8.91,3.74-17.67,12.6-19.76h-.05Zm-114.92,242.11c-8.61,2.03-17.24-3.31-19.26-11.92-.03-.14-.06-.28-.09-.42-1.84-8.91,3.75-17.66,12.6-19.75,8.59-2.03,17.2,3.29,19.23,11.89.04.16.07.32.1.47,1.84,8.9-3.73,17.66-12.58,19.76v-.03Zm67.23-100.41c-8.61,2.02-17.22-3.31-19.25-11.92-.03-.15-.07-.29-.1-.44-1.85-8.91,3.74-17.67,12.59-19.76,8.59-2.03,17.2,3.28,19.24,11.87.04.16.07.32.11.49,1.84,8.91-3.74,17.66-12.59,19.76h0Zm128.97,48.84c8.42-2.64,17.39,2.05,20.03,10.47.05.16.1.31.14.47,2.46,8.76-2.5,17.89-11.19,20.59-8.45,2.63-17.43-2.08-20.06-10.53-.04-.14-.08-.28-.12-.42-2.44-8.76,2.52-17.88,11.2-20.59Zm-46.3,138.98c-8.44,2.62-17.4-2.1-20.02-10.54-.04-.14-.08-.27-.12-.41-2.44-8.76,2.52-17.87,11.2-20.58,8.42-2.65,17.4,2.03,20.04,10.45.05.16.1.31.14.47,2.46,8.77-2.5,17.9-11.2,20.6h-.05Zm124.79-208.15c-8.42,2.64-17.39-2.04-20.04-10.47-.05-.15-.09-.31-.14-.46-2.45-8.76,2.51-17.88,11.2-20.59,8.42-2.65,17.38,2.03,20.03,10.45.05.16.1.32.14.49,2.46,8.76-2.5,17.89-11.2,20.59Z"/>
  </g>
  <path d="m540,1043.6l-70.47-45.26-246.08-320.5-111.33-196.65-41.84-122.11,13.8-147.21,90.22-98.12,132.83-55.79,178.61-24.37,111.76.22,175.41,24.15,132.83,55.79,90.22,98.12,13.8,147.21-43.65,126.11-111.33,195.36-244.28,317.79-70.46,45.26Zm-38.13-80.46l38.13,24.49,38.12-24.49,238.3-310,107.63-189.3,37.86-110.44-11.38-121.33-72.53-78.87-117.65-49.42-167.69-23.09h-105.32l-167.69,23.09-117.66,49.42-72.53,78.87-11.37,121.33,37.85,110.44,107.63,189.3,238.3,310Z"/>
</svg>