<svg id="Acasa" xmlns="http://www.w3.org/2000/svg" xmlns:xlink="http://www.w3.org/1999/xlink" viewBox="0 0 1000 1000"><defs><style>.cls-1,.cls-3{fill:none;}.cls-2{clip-path:url(#clip-path);}.cls-3{stroke:#000;stroke-miterlimit:10;stroke-width:13px;}</style><clipPath id="clip-path"><path class="cls-1" d="M500.52,929.82c-4.8-5.39-367.24-412.9-344.25-607.09,23-194.53,341.15-195.47,344.24-195.48h0c3.09,0,321.21.95,344.24,195.48C844.78,322.73,836.14,528.54,500.52,929.82Z"/></clipPath></defs><g class="cls-2"><path d="M689,432.05c2.21-4.87-1.15-5.9-1.15-5.9s-16.22-7.65-19.1-9.13a18.94,18.94,0,0,0-8.67-2.5,59.7,59.7,0,0,0-10.34.62c16.63-21.48,29.54-37.52,32.61-41.26,0,0,7.06-7.43-.61-11.95-10.47-6.17-40.44-26.28-36-42.1,3.23-10.71-13-28.62-44.81-47.35s-55.32-24.29-63.13-16.28c-11.68,11.56-43.78-4.92-54.25-11.09-7.67-4.52-10.75,5.26-10.75,5.26-1.79,4.49-9.58,23.56-20.31,48.51a58,58,0,0,0-4.47-9.35,19,19,0,0,0-6.38-6.38c-2.69-1.81-17.24-12.29-17.24-12.29s-2.53-2.44-5.71,1.85-8.4,9.74-9.75,12l-.58,1-.15.25-.14.24-.58,1c-1.35,2.3-3.61,9.5-5.81,14.37s1.15,5.88,1.15,5.88,16.22,7.66,19.11,9.13a19,19,0,0,0,8.66,2.51c4.21.34,12.21-.87,12.21-.87l-.52.88,1.13.67c-10,22.78-21.44,48-32.59,70.87l-2.68-1.58-.51.88s-2.81-7.59-5.15-11.1a19.08,19.08,0,0,0-6.39-6.38c-2.68-1.81-17.23-12.29-17.23-12.29s-2.54-2.43-5.72,1.86-8.39,9.74-9.74,12l-.58,1-.15.25-.14.24-.59,1c-1.34,2.29-3.6,9.48-5.8,14.35s1.15,5.89,1.15,5.89,16.22,7.66,19.09,9.13a19.15,19.15,0,0,0,8.68,2.49c4.2.35,12.2-.86,12.2-.86l-.52.88,3.6,2.12,3.32-5.63.06,0c-5.74,11.31-11.3,21.67-16.41,30.34-11,18.6-20.46,33.63-28.74,46.13l.4-.7-3.6-2.12-.52.89s-2.81-7.59-5.15-11.1a18.86,18.86,0,0,0-6.39-6.37c-2.68-1.81-17.23-12.29-17.23-12.29s-2.53-2.45-5.71,1.84-8.4,9.75-9.75,12l-.58,1-.14.24-.15.24-.58,1c-1.35,2.29-3.61,9.49-5.81,14.35s1.16,5.89,1.16,5.89,16.21,7.67,19.09,9.13a18.86,18.86,0,0,0,8.67,2.5c4.21.35,12.2-.87,12.2-.87l-.52.88,2.36,1.39c-9.58,13.63-17.09,23.38-23,31.5-12.52,17.24-8.32,22.1-8.32,22.1,24.05,43-107.13,258.52-107.13,258.52l55.89,32.94,55.88,32.94S444.76,658.19,494,658.41c0,0,6.29,1.32,15.31-18,4.25-9.09,9.14-20.38,16.43-35.36l2.36,1.39.52-.88s2.81,7.58,5.15,11.09a18.72,18.72,0,0,0,6.39,6.38c2.67,1.82,17.22,12.29,17.22,12.29s2.53,2.45,5.72-1.84,8.39-9.74,9.75-12l.58-1,.14-.24.14-.24.58-1c1.35-2.28,3.62-9.49,5.82-14.36s-1.16-5.89-1.16-5.89-16.22-7.66-19.09-9.12a18.82,18.82,0,0,0-8.67-2.5c-4.21-.35-12.2.86-12.2.86l.52-.88-3.6-2.13-.41.69c6.91-13.3,15.48-28.88,26.44-47.48,5.11-8.67,11.48-18.55,18.6-29.05l.06,0-3.32,5.63,3.6,2.12.51-.87s2.81,7.59,5.15,11.09a19.12,19.12,0,0,0,6.39,6.39c2.68,1.8,17.22,12.28,17.22,12.28s2.54,2.44,5.72-1.84,8.4-9.74,9.74-12l.59-1,.14-.24.14-.24.59-1c1.34-2.29,3.6-9.49,5.8-14.35s-1.15-5.91-1.15-5.91-16.21-7.65-19.09-9.11a19.1,19.1,0,0,0-8.67-2.51c-4.21-.35-12.2.87-12.2.87l.51-.88L589.61,496c14.58-20.8,31.13-43,46.23-62.83l1.14.67.52-.88s2.81,7.59,5.14,11.1a19,19,0,0,0,6.39,6.37c2.68,1.81,17.24,12.29,17.24,12.29s2.53,2.45,5.71-1.84,8.4-9.74,9.75-12l.59-1,.14-.24.14-.25.58-1c1.36-2.29,3.61-9.49,5.81-14.35ZM469.1,326.34a13.92,13.92,0,0,1,16.81,10.74A14.63,14.63,0,0,1,475,354.26a13.9,13.9,0,0,1-16.81-10.75,14.6,14.6,0,0,1,10.95-17.17ZM369.24,536.72A13.92,13.92,0,0,1,352.42,526a14.6,14.6,0,0,1,10.95-17.16,13.89,13.89,0,0,1,16.8,10.74,14.61,14.61,0,0,1-10.93,17.17Zm58.42-87.25a13.91,13.91,0,0,1-16.81-10.74,14.6,14.6,0,0,1,10.94-17.17A13.89,13.89,0,0,1,438.6,432.3a14.61,14.61,0,0,1-10.94,17.17Zm112.07,42.44a13.89,13.89,0,0,1,17.53,9.51,14.6,14.6,0,0,1-9.72,17.89A13.92,13.92,0,0,1,530,509.8a14.63,14.63,0,0,1,9.73-17.89ZM499.5,612.68A13.9,13.9,0,0,1,482,603.17a14.62,14.62,0,0,1,9.73-17.88,13.89,13.89,0,0,1,17.54,9.49,14.61,14.61,0,0,1-9.73,17.9ZM607.94,431.81a13.89,13.89,0,0,1-17.53-9.5,14.62,14.62,0,0,1,9.73-17.89,13.88,13.88,0,0,1,17.53,9.5A14.6,14.6,0,0,1,607.94,431.81Z"/></g><polygon class="cls-3" points="547.18 872.75 757.28 599.43 852.46 432.03 887.4 330.08 876.46 213.41 805.75 136.51 696.92 90.8 547.16 70.18 452.84 70.18 303.08 90.8 194.25 136.51 123.54 213.41 112.6 330.08 147.54 432.03 242.72 599.43 452.82 872.75 500 903.06 547.18 872.75"/></svg>